<svg id="icon_navigation_apps_24px" data-name="icon/navigation/apps_24px" xmlns="http://www.w3.org/2000/svg" width="123" height="123" viewBox="0 0 123 123">
    <rect id="Boundary" width="123" height="123" fill="none"/>
    <path id="_Color" data-name=" ↳Color" d="M115,115H86.247V86.247H115V115Zm-43.127,0H43.127V86.247H71.873V115Zm-43.127,0H0V86.247H28.747V115ZM115,71.873H86.247V43.127H115V71.873Zm-43.127,0H43.127V43.127H71.873V71.873Zm-43.127,0H0V43.127H28.747V71.873ZM115,28.747H86.247V0H115V28.747Zm-43.127,0H43.127V0H71.873V28.747Zm-43.127,0H0V0H28.747V28.747Z" transform="translate(4 4)" fill="#1e292f"/>
</svg>