<svg id="icon_action_bookmark_border_24px" data-name="icon/action/bookmark_border_24px" xmlns="http://www.w3.org/2000/svg" width="127" height="127" viewBox="0 0 127 127">
    <rect id="Boundary" width="127" height="127" fill="none"/>
    <path id="Path_37" data-name="Path 37" d="M40.014,30.463a44.8,44.8,0,0,0,.4-5.565,44.8,44.8,0,0,0-.4-5.565L52.085,9.886a2.846,2.846,0,0,0,.685-3.653L41.355-13.544a2.823,2.823,0,0,0-3.482-1.227L23.661-9.034a43.308,43.308,0,0,0-9.646-5.622l-2.14-15.125a2.935,2.935,0,0,0-2.854-2.4H-13.81a2.882,2.882,0,0,0-2.825,2.4l-2.14,15.125a42.237,42.237,0,0,0-9.646,5.622l-14.212-5.736a2.855,2.855,0,0,0-3.482,1.227L-57.53,6.234a2.859,2.859,0,0,0,.685,3.653L-44.8,19.333a44.8,44.8,0,0,0-.4,5.565,44.8,44.8,0,0,0,.4,5.565l-12.043,9.446a2.846,2.846,0,0,0-.685,3.653l11.415,19.777a2.823,2.823,0,0,0,3.482,1.227l14.212-5.736a43.308,43.308,0,0,0,9.646,5.622l2.14,15.125a2.882,2.882,0,0,0,2.825,2.4H9.021a2.882,2.882,0,0,0,2.825-2.4l2.14-15.125a42.237,42.237,0,0,0,9.646-5.622l14.212,5.736a2.855,2.855,0,0,0,3.482-1.227L52.742,43.562a2.859,2.859,0,0,0-.685-3.653ZM-2.394,44.874A19.962,19.962,0,0,1-22.371,24.9,19.962,19.962,0,0,1-2.394,4.921,19.962,19.962,0,0,1,17.583,24.9,19.962,19.962,0,0,1-2.394,44.874Z" transform="translate(65.913 38.602)" fill="rgba(0,0,0,0.8)"/>
</svg>